<?xml version="1.0" encoding="UTF-8"?>
<svg version="1.1" xmlns="http://www.w3.org/2000/svg" width="162" height="113">
<path d="M0 0 C7.61406844 -0.76140684 7.61406844 -0.76140684 10.8984375 1.04296875 C13.03929768 2.82353782 14.74757112 4.49514224 16 7 C16.41913263 12.96532949 16.40797172 18.43156539 14 24 C14.6084375 24.21785156 15.216875 24.43570313 15.84375 24.66015625 C18.76961796 26.47822276 19.27161455 28.24618781 20.5 31.4375 C20.91636719 32.50355469 21.33273438 33.56960937 21.76171875 34.66796875 C22.17035156 35.76753906 22.57898438 36.86710937 23 38 C23.39832031 39.06863281 23.79664062 40.13726562 24.20703125 41.23828125 C25.15466359 43.8199934 26.08604567 46.40620783 27 49 C28.52146946 46.87545311 30.04216604 44.75035926 31.5625 42.625 C32.01560547 41.99247314 32.46871094 41.35994629 32.93554688 40.70825195 C36.22431124 36.10944761 39.45011041 31.47135173 42.625 26.79296875 C44 25 44 25 46 24 C51.28948356 23.54983119 51.28948356 23.54983119 53.6184082 25.02539062 C55.7236168 28.03421323 55.82168399 31.2819639 56.16796875 34.84375 C56.25250809 35.60925171 56.33704742 36.37475342 56.42414856 37.16345215 C56.69091971 39.60782397 56.93921549 42.05368855 57.1875 44.5 C57.36536804 46.147262 57.54439131 47.7943997 57.72460938 49.44140625 C59 61.2642088 59 61.2642088 59 65 C54.71 65 50.42 65 46 65 C45.01 54.11 45.01 54.11 44 43 C43.03578125 44.49273437 42.0715625 45.98546875 41.078125 47.5234375 C39.80257444 49.47427953 38.52650576 51.42478286 37.25 53.375 C36.29867187 54.85226563 36.29867187 54.85226563 35.328125 56.359375 C34.709375 57.30039063 34.090625 58.24140625 33.453125 59.2109375 C32.88754883 60.08024902 32.32197266 60.94956055 31.73925781 61.84521484 C29.91675836 64.10312896 28.71501582 65.04243016 26 66 C22.9375 65.9375 22.9375 65.9375 20 65 C16.9950039 60.95719597 15.72171588 56.4515863 14.3125 51.6875 C14.08755859 50.94693359 13.86261719 50.20636719 13.63085938 49.44335938 C13.08122049 47.63072049 12.5397733 45.81560111 12 44 C9.90533382 46.09466618 9.33150281 47.36940186 8.30859375 50.09765625 C8.00373047 50.89880859 7.69886719 51.69996094 7.38476562 52.52539062 C6.91586914 53.78125977 6.91586914 53.78125977 6.4375 55.0625 C5.81352399 56.72092912 5.18733788 58.37852894 4.55859375 60.03515625 C4.28329834 60.7712915 4.00800293 61.50742676 3.72436523 62.26586914 C3 64 3 64 2 65 C-0.01964199 65.07244053 -2.04167124 65.08377188 -4.0625 65.0625 C-5.16722656 65.05347656 -6.27195313 65.04445313 -7.41015625 65.03515625 C-8.26480469 65.02355469 -9.11945313 65.01195313 -10 65 C-9.79503906 64.39671875 -9.59007812 63.7934375 -9.37890625 63.171875 C-9.10949219 62.37265625 -8.84007812 61.5734375 -8.5625 60.75 C-8.29566406 59.96109375 -8.02882812 59.1721875 -7.75390625 58.359375 C-7.08045292 56.25178012 -6.50849405 54.15246027 -6 52 C-6.62261719 52.63615234 -6.62261719 52.63615234 -7.2578125 53.28515625 C-13.97313459 59.67735615 -23.14525488 65.45855448 -32.4375 67.125 C-36.73325242 66.97427184 -39.32173656 66.23580719 -43 64 C-46.06764693 59.64592048 -46.58214312 56.23928811 -46 51 C-44.81395206 46.61521671 -43.44981205 42.30412953 -42 38 C-41.34 38 -40.68 38 -40 38 C-40.09539063 38.58007812 -40.19078125 39.16015625 -40.2890625 39.7578125 C-41.27285181 46.60530498 -41.27285181 46.60530498 -39 53 C-34.32111887 55.43691726 -31.57547965 55.11111737 -26.5625 53.625 C-25.03531048 53.10152222 -23.5119989 52.56585874 -22 52 C-22.90645264 51.33556885 -23.81290527 50.6711377 -24.74682617 49.98657227 C-28.41373444 46.91948966 -30.12167737 43.52255354 -32.05078125 39.21484375 C-32.56719429 38.10768761 -32.56719429 38.10768761 -33.09403992 36.97816467 C-34.18105586 34.63753632 -35.24651984 32.28777034 -36.3125 29.9375 C-37.0462235 28.35551502 -37.78123785 26.77412806 -38.51757812 25.19335938 C-39.21730191 23.68022157 -39.91590892 22.16656673 -40.61328125 20.65234375 C-40.93927811 19.94496567 -41.26527496 19.23758759 -41.60115051 18.5087738 C-43.04216024 15.32750759 -44.14917166 12.40331334 -45 9 C-40.05 9 -35.1 9 -30 9 C-28.15956426 12.76751538 -26.32741896 16.5386778 -24.5 20.3125 C-23.97535156 21.38435547 -23.45070313 22.45621094 -22.91015625 23.56054688 C-22.41386719 24.58857422 -21.91757812 25.61660156 -21.40625 26.67578125 C-20.94541016 27.62364502 -20.48457031 28.57150879 -20.00976562 29.5480957 C-19 32 -19 32 -19 35 C-18.34 35 -17.68 35 -17 35 C-16.75378906 34.44441406 -16.50757812 33.88882813 -16.25390625 33.31640625 C-14.1856508 29.49561035 -11.29292703 26.3628659 -8.515625 23.0390625 C-6.81961925 20.99016114 -5.16735327 18.94151882 -3.546875 16.8359375 C-2.76828125 15.83820312 -1.9896875 14.84046875 -1.1875 13.8125 C-0.12595703 12.42998047 -0.12595703 12.42998047 0.95703125 11.01953125 C3 9 3 9 7 9 C6.96044102 7.07690578 6.96044102 7.07690578 6 5 C3.01647106 3.21620585 3.01647106 3.21620585 0 2 C0 1.34 0 0.68 0 0 Z M7 13 C8 17 8 17 8 17 Z M6 17 C7 20 7 20 7 20 Z M5 20 C6 22 6 22 6 22 Z M4 22 C3.67 23.32 3.34 24.64 3 26 C3.66 25.67 4.32 25.34 5 25 C4.67 24.01 4.34 23.02 4 22 Z M2 26 C3 28 3 28 3 28 Z M1 28 C1 31 1 31 1 31 Z M-1 31 C-1 34 -1 34 -1 34 Z M-4 35 C-7.63 38.63 -11.26 42.26 -15 46 C-11.87737482 46.32828283 -11.87737482 46.32828283 -9.73828125 44.03125 C-8.93777344 43.1959375 -8.13726562 42.360625 -7.3125 41.5 C-6.50425781 40.6646875 -5.69601563 39.829375 -4.86328125 38.96875 C-4.24839844 38.3190625 -3.63351563 37.669375 -3 37 C-3.33 36.34 -3.66 35.68 -4 35 Z M-19.125 49 C-19.74375 49.66 -20.3625 50.32 -21 51 C-17.27385847 49.88145414 -17.27385847 49.88145414 -15 47 C-17.24362573 46.7715451 -17.24362573 46.7715451 -19.125 49 Z " fill="#181A28" transform="translate(74,26)"/>
<path d="M0 0 C4.95 0 9.9 0 15 0 C16.84043574 3.76751538 18.67258104 7.5386778 20.5 11.3125 C21.02464844 12.38435547 21.54929687 13.45621094 22.08984375 14.56054688 C22.58613281 15.58857422 23.08242188 16.61660156 23.59375 17.67578125 C24.05458984 18.62364502 24.51542969 19.57150879 24.99023438 20.5480957 C26 23 26 23 26 26 C26.66 26 27.32 26 28 26 C28.24621094 25.44441406 28.49242188 24.88882813 28.74609375 24.31640625 C30.24004406 21.55655412 32.05058408 19.34683141 34.0625 16.9375 C34.8565625 15.98101562 35.650625 15.02453125 36.46875 14.0390625 C37.3040625 13.03617188 38.139375 12.03328125 39 11 C40.69187556 8.94104333 42.37700619 6.87669654 44.0625 4.8125 C45.375 3.20833333 46.6875 1.60416667 48 0 C50.475 0.495 50.475 0.495 53 1 C50.95570388 17.24862949 40.86213971 27.81347375 29.140625 38.40625 C26.85183307 40.11031407 24.68416702 41.06148006 22 42 C17.21244025 38.77093933 15.35021298 35.41021946 13.046875 30.3125 C12.52833954 29.20322144 12.52833954 29.20322144 11.99932861 28.0715332 C11.27416912 26.51432785 10.55509373 24.95427632 9.84179688 23.39160156 C8.75106268 21.00232782 7.64296224 18.62176238 6.53125 16.2421875 C5.82710386 14.72443166 5.12394471 13.20621745 4.421875 11.6875 C4.09274109 10.97698486 3.76360718 10.26646973 3.42449951 9.53442383 C1.97088029 6.34395155 0.85416673 3.41666691 0 0 Z " fill="#BA0C0D" transform="translate(29,35)"/>
<path d="M0 0 C2.63170999 3.12515561 2.85567833 5.33399316 3 9.375 C2.5625 11.8125 2.5625 11.8125 2 13.375 C1.34 13.375 0.68 13.375 0 13.375 C-0.2475 12.446875 -0.495 11.51875 -0.75 10.5625 C-2.12047908 7.06777834 -2.88790927 6.29182756 -6 4.375 C-16.03826522 1.38678201 -24.49356308 5.93250328 -33.1875 10.625 C-34.79607823 11.53390294 -36.40195558 12.4477015 -38 13.375 C-35.27572456 6.58664154 -27.54898085 2.92457341 -21.1875 0 C-14.00373632 -2.92114649 -7.05453166 -3.82120465 0 0 Z " fill="#972928" transform="translate(91,21.625)"/>
<path d="M0 0 C0.33 0.99 0.66 1.98 1 3 C0.34 3 -0.32 3 -1 3 C-1 3.66 -1 4.32 -1 5 C-1.66 5 -2.32 5 -3 5 C-3 6.32 -3 7.64 -3 9 C-4.32 9 -5.64 9 -7 9 C-7.33 9.99 -7.66 10.98 -8 12 C-10 11 -10 11 -12 9 C-12 9.99 -12 10.98 -12 12 C-12.99 12 -13.98 12 -15 12 C-14.07647309 7.10750622 -11.38126687 3.56866239 -8 0 C-4.56839423 -1.35668135 -3.51182876 -1.17060959 0 0 Z " fill="#C2090B" transform="translate(74,50)"/>
<path d="M0 0 C-1.65 3.3 -3.3 6.6 -5 10 C-4.34 10.33 -3.68 10.66 -3 11 C-3.99 11 -4.98 11 -6 11 C-6.33 12.32 -6.66 13.64 -7 15 C-4.36 15 -1.72 15 1 15 C1.33 14.34 1.66 13.68 2 13 C2.33 13.99 2.66 14.98 3 16 C2 17 2 17 -0.72265625 17.09765625 C-1.82480469 17.08605469 -2.92695312 17.07445313 -4.0625 17.0625 C-5.71958984 17.04896484 -5.71958984 17.04896484 -7.41015625 17.03515625 C-8.26480469 17.02355469 -9.11945313 17.01195313 -10 17 C-9.79503906 16.39671875 -9.59007813 15.7934375 -9.37890625 15.171875 C-8.97478516 13.97304687 -8.97478516 13.97304687 -8.5625 12.75 C-8.29566406 11.96109375 -8.02882813 11.1721875 -7.75390625 10.359375 C-7.08045292 8.25178012 -6.50849405 6.15246027 -6 4 C-6.54269531 4.49371094 -7.08539063 4.98742187 -7.64453125 5.49609375 C-8.35996094 6.13675781 -9.07539062 6.77742188 -9.8125 7.4375 C-10.87404297 8.39462891 -10.87404297 8.39462891 -11.95703125 9.37109375 C-14 11 -14 11 -17 12 C-15.48800263 8.24957078 -13.30538722 6.27422653 -10.1875 3.75 C-8.90939453 2.69039063 -8.90939453 2.69039063 -7.60546875 1.609375 C-5 0 -5 0 0 0 Z " fill="#11121D" transform="translate(74,74)"/>
<path d="M0 0 C1.67542976 0.28604898 3.34385343 0.61781233 5 1 C3.67123512 11.56138984 -0.82599134 20.19299058 -8 28 C-8 24.79604584 -7.25664978 22.90600261 -6 20 C-5.34 20 -4.68 20 -4 20 C-3.67 19.01 -3.34 18.02 -3 17 C-3.66 16.34 -4.32 15.68 -5 15 C-3.625 13.5 -3.625 13.5 -2 12 C-1.34 12 -0.68 12 0 12 C0.12375 11.29875 0.2475 10.5975 0.375 9.875 C1.03838345 6.82343613 1.97211955 3.94659062 3 1 C1.02 2.32 -0.96 3.64 -3 5 C-1.125 1.125 -1.125 1.125 0 0 Z " fill="#9F161C" transform="translate(77,35)"/>
<path d="M0 0 C0.6875 3.125 0.6875 3.125 1 6 C0.46375 5.71125 -0.0725 5.4225 -0.625 5.125 C-6.91454601 2.14574136 -12.13886607 1.75592804 -19 2 C-19 1.34 -19 0.68 -19 0 C-18.34 0 -17.68 0 -17 0 C-17 -0.66 -17 -1.32 -17 -2 C-11.20665023 -3.68194026 -5.02164138 -3.34776092 0 0 Z " fill="#AF1112" transform="translate(91,22)"/>
<path d="M0 0 C2.97 0 5.94 0 9 0 C9.33 3.3 9.66 6.6 10 10 C8.68 10 7.36 10 6 10 C5.34 8.68 4.68 7.36 4 6 C4 6.99 4 7.98 4 9 C3.34 9 2.68 9 2 9 C2 8.01 2 7.02 2 6 C1.34 6 0.68 6 0 6 C0 4.02 0 2.04 0 0 Z " fill="#C3080B" transform="translate(33,37)"/>
<path d="M0 0 C8.03501094 -0.63019694 8.03501094 -0.63019694 12.0625 2 C12.701875 2.66 13.34125 3.32 14 4 C13.67 4.99 13.34 5.98 13 7 C12.67 6.34 12.34 5.68 12 5 C11.01 5.495 11.01 5.495 10 6 C10 9.3 10 12.6 10 16 C9.34 16 8.68 16 8 16 C7.97421875 15.31292969 7.9484375 14.62585937 7.921875 13.91796875 C7.86515625 13.01691406 7.8084375 12.11585937 7.75 11.1875 C7.70359375 10.29417969 7.6571875 9.40085937 7.609375 8.48046875 C7.20717493 5.87821588 7.20717493 5.87821588 5.140625 4.23828125 C2.93479735 2.86643214 2.93479735 2.86643214 0 2 C0 1.34 0 0.68 0 0 Z " fill="#27151F" transform="translate(74,26)"/>
<path d="M0 0 C1.67542976 0.28604898 3.34385343 0.61781233 5 1 C5.33 2.32 5.66 3.64 6 5 C5.67 5 5.34 5 5 5 C4.855625 6.27875 4.71125 7.5575 4.5625 8.875 C4.29357254 11.25692894 4.07773654 12.84452691 3 15 C2.01 14.67 1.02 14.34 0 14 C-0.19393875 11.85473901 -0.37998676 9.70876323 -0.5625 7.5625 C-0.71912109 5.77005859 -0.71912109 5.77005859 -0.87890625 3.94140625 C-0.91886719 2.97074219 -0.95882812 2.00007813 -1 1 C-0.67 0.67 -0.34 0.34 0 0 Z " fill="#1D1B2B" transform="translate(84,30)"/>
<path d="M0 0 C0 6.87780312 -8.33091762 14.27662596 -13 19 C-15.9375 21 -15.9375 21 -18 22 C-16.58025296 18.71864587 -14.86421634 16.72913022 -12.25 14.3125 C-8.59938516 10.78135983 -5.87860623 7.10398724 -3.2265625 2.78515625 C-2 1 -2 1 0 0 Z " fill="#19151D" transform="translate(78,53)"/>
<path d="M0 0 C0.66 0 1.32 0 2 0 C1.855625 0.75925781 1.71125 1.51851563 1.5625 2.30078125 C1.376875 3.29464844 1.19125 4.28851563 1 5.3125 C0.814375 6.29863281 0.62875 7.28476563 0.4375 8.30078125 C-0.29224811 12.80306649 0.48752881 15.74617478 2 20 C1.01 20 0.02 20 -1 20 C-1.33 18.35 -1.66 16.7 -2 15 C-2.66 15 -3.32 15 -4 15 C-2.07289294 4.44191344 -2.07289294 4.44191344 0 0 Z " fill="#1B1928" transform="translate(32,64)"/>
<path d="M0 0 C0.33 0 0.66 0 1 0 C1.33 2.64 1.66 5.28 2 8 C5.3 8 8.6 8 12 8 C12 8.99 12 9.98 12 11 C7.71 11 3.42 11 -1 11 C-1.125 3.375 -1.125 3.375 0 0 Z " fill="#11121C" transform="translate(121,80)"/>
<path d="M0 0 C4.95 0 9.9 0 15 0 C15 0.66 15 1.32 15 2 C11.37 2 7.74 2 4 2 C4 3.98 4 5.96 4 8 C1.67210485 5.16604069 0.92622107 3.70488428 0 0 Z " fill="#9C1F23" transform="translate(29,35)"/>
<path d="M0 0 C0.66 0.66 1.32 1.32 2 2 C-3.445 10.415 -3.445 10.415 -9 19 C-9.66 18.34 -10.32 17.68 -11 17 C-10.6390625 16.44570312 -10.278125 15.89140625 -9.90625 15.3203125 C-9.4421875 14.59585938 -8.978125 13.87140625 -8.5 13.125 C-7.80390625 12.04605469 -7.80390625 12.04605469 -7.09375 10.9453125 C-5.83663499 9.08139534 -5.83663499 9.08139534 -6 7 C-4.68870078 5.64499081 -3.35308313 4.31328657 -2 3 C-1.34 2.01 -0.68 1.02 0 0 Z " fill="#10121C" transform="translate(116,67)"/>
<path d="M0 0 C0.66 0 1.32 0 2 0 C1.45269624 3.92234364 0.82170566 7.45779454 -1 11 C-1.99 11.33 -2.98 11.66 -4 12 C-4.33 10.35 -4.66 8.7 -5 7 C-4.34 7 -3.68 7 -3 7 C-2.87625 6.21625 -2.7525 5.4325 -2.625 4.625 C-2 2 -2 2 0 0 Z " fill="#C10909" transform="translate(78,36)"/>
<path d="M0 0 C0.99 0 1.98 0 3 0 C3.69965443 1.26418246 4.38434763 2.53665402 5.0625 3.8125 C5.63677734 4.87404297 5.63677734 4.87404297 6.22265625 5.95703125 C7 8 7 8 6 11 C6 10.34 6 9.68 6 9 C5.34 9 4.68 9 4 9 C3.34 8.01 2.68 7.02 2 6 C1.01 7.485 1.01 7.485 0 9 C0 7.68 0 6.36 0 5 C-0.66 4.67 -1.32 4.34 -2 4 C-1.34 4 -0.68 4 0 4 C0 2.68 0 1.36 0 0 Z " fill="#AD1412" transform="translate(42,37)"/>
<path d="M0 0 C0.61875 0.66 1.2375 1.32 1.875 2 C3.75637427 4.2284549 3.75637427 4.2284549 6 4 C6 4.66 6 5.32 6 6 C7.98 5.67 9.96 5.34 12 5 C10.68 6.32 9.36 7.64 8 9 C4.11980141 7.74155722 2.0588158 6.57583797 0 3 C0 2.01 0 1.02 0 0 Z " fill="#991F21" transform="translate(45,68)"/>
<path d="M0 0 C0.66 0.33 1.32 0.66 2 1 C0.67708855 4.96873434 -0.91149738 5.29905037 -4.5625 7.1875 C-5.57441406 7.71730469 -6.58632813 8.24710938 -7.62890625 8.79296875 C-8.41136719 9.19128906 -9.19382813 9.58960938 -10 10 C-8.5741914 6.54804233 -6.90253666 4.8985744 -3.875 2.75 C-3.15054688 2.22921875 -2.42609375 1.7084375 -1.6796875 1.171875 C-1.12539063 0.78515625 -0.57109375 0.3984375 0 0 Z " fill="#8B3134" transform="translate(63,25)"/>
<path d="M0 0 C0.99 0 1.98 0 3 0 C3.226875 0.94875 3.45375 1.8975 3.6875 2.875 C4.69083714 6.19323388 4.69083714 6.19323388 7.625 7.375 C8.40875 7.58125 9.1925 7.7875 10 8 C8.02 8.99 8.02 8.99 6 10 C2.46413986 6.82679218 0.41421969 4.83256305 0 0 Z " fill="#0F101A" transform="translate(30,73)"/>
<path d="M0 0 C1.8125 0.125 1.8125 0.125 4 1 C5.95320589 4.20883825 7 6.2205439 7 10 C6.34 10 5.68 10 5 10 C2 4.375 2 4.375 2 1 C1.34 0.67 0.68 0.34 0 0 Z " fill="#12141D" transform="translate(88,51)"/>
<path d="M0 0 C0 3.60573896 -0.81707462 4.41336566 -3 7.1875 C-3.556875 7.90292969 -4.11375 8.61835937 -4.6875 9.35546875 C-5.120625 9.89816406 -5.55375 10.44085938 -6 11 C-6 7.79604584 -5.25664978 5.90600261 -4 3 C-3.34 3 -2.68 3 -2 3 C-2 2.34 -2 1.68 -2 1 C-1.34 0.67 -0.68 0.34 0 0 Z " fill="#931B19" transform="translate(75,52)"/>
<path d="M0 0 C0.33 1.32 0.66 2.64 1 4 C0.01 4.33 -0.98 4.66 -2 5 C-3.42857119 6.40105576 -3.42857119 6.40105576 -4.6875 8.0625 C-5.450625 9.031875 -6.21375 10.00125 -7 11 C-7 7.22089522 -6.00296038 6.53893899 -3.5 3.8125 C-2.8503125 3.09707031 -2.200625 2.38164063 -1.53125 1.64453125 C-1.0259375 1.10183594 -0.520625 0.55914062 0 0 Z " fill="#9D1819" transform="translate(69,45)"/>
<path d="M0 0 C-0.99 0.33 -1.98 0.66 -3 1 C-3 1.66 -3 2.32 -3 3 C-4.65 3.33 -6.3 3.66 -8 4 C-5.97675095 -0.48005146 -4.79569304 -1.43870791 0 0 Z " fill="#9F1C1E" transform="translate(71,24)"/>
<path d="M0 0 C4.8 2.46153846 4.8 2.46153846 5.8125 5.1875 C5.874375 5.785625 5.93625 6.38375 6 7 C4.0625 6.1875 4.0625 6.1875 2 5 C1.67 4.01 1.34 3.02 1 2 C0.34 1.67 -0.32 1.34 -1 1 C-0.67 0.67 -0.34 0.34 0 0 Z " fill="#15101B" transform="translate(82,26)"/>
</svg>
