<svg width="120" height="70" viewBox="0 0 120 70" xmlns="http://www.w3.org/2000/svg">
  <defs>
    <linearGradient id="vmss_red" x1="0%" y1="0%" x2="100%" y2="0%">
      <stop offset="0%" stop-color="#d90012"/>
      <stop offset="100%" stop-color="#a70000"/>
    </linearGradient>
    <linearGradient id="vmss_swoosh" x1="0%" y1="50%" x2="100%" y2="50%">
      <stop offset="0%" stop-color="#a10000" stop-opacity="0.1"/>
      <stop offset="100%" stop-color="#e50012"/>
    </linearGradient>
  </defs>
  <rect width="120" height="70" rx="12" fill="url(#vmss_swoosh)" opacity="0"/>
  <path
    d="M14 45 C24 52, 56 58, 92 30"
    fill="none"
    stroke="#c40016"
    stroke-width="8"
    stroke-linecap="round"
  />
  <circle cx="34" cy="16" r="7" fill="url(#vmss_red)"/>
  <path
    d="M30 23 L40 23 L37 50 L27 50 Z"
    fill="url(#vmss_red)"
  />
  <path
    d="M57 24 L69 50 L81 26 L93 50 L105 24 L109 24 L96 56 L86 56 L78 38 L69 56 L58 56 L45 24 Z"
    fill="#0f1324"
  />
  <path
    d="M26 11 C52 -5, 90 5, 108 22"
    fill="none"
    stroke="#c40016"
    stroke-width="4"
    stroke-linecap="round"
  />
</svg>

